<svg xmlns="http://www.w3.org/2000/svg" width="547.668" height="403.322" viewBox="0 0 547.668 403.322"><defs><style>.a{fill:#fff;}</style></defs><g transform="translate(-26.332 -98.714)"><path class="a" d="M254.4,501.631c-45.607,1.576-89.673-1.718-107.343-5.152A296.583,296.583,0,0,1,97.492,482.49a218.408,218.408,0,0,1-41.469-20.855q-18.4-12.03-29.691-25.766v-84.9q5.891,13.749,22.086,26.992a231.962,231.962,0,0,0,34.843,23.557A299.426,299.426,0,0,0,118.1,418.2q16.2,6.381,22.086,6.381V170.364h-4.909q-4.413,0-12.022.739a63.829,63.829,0,0,0-15.705,3.681,54.5,54.5,0,0,0-15.46,8.833,45.017,45.017,0,0,0-12.268,16.195V121.29a23.935,23.935,0,0,0-2.21-10.8,26.51,26.51,0,0,0-4.662-6.873,30.442,30.442,0,0,0-6.381-4.906H227.546q-6.881,5.408-9.815,10.062t-2.946,14.966V397.591q0,11.776,2.21,18.894a23.477,23.477,0,0,0,7.116,11.286,30.756,30.756,0,0,0,12.514,6.134,116.188,116.188,0,0,0,17.912,2.945Z"/><path class="a" d="M534.34,447.087a37.311,37.311,0,0,0,6.033,20.4,99.207,99.207,0,0,0,13.5,16.954A149.775,149.775,0,0,0,574,501.109H444.687a18.313,18.313,0,0,0,6.894-5.172,23.193,23.193,0,0,0,4.888-8.044q2.006-5.174,2.011-14.37,0-3.449-.289-14.943t-.576-27.87q-.292-16.381-.573-36.5-.3-20.11-.862-40.229-1.156-47.694-1.726-105.169L393.537,493.638l-64.366-238.5q0,51.721.573,95.974v37.642q0,18.684.288,34.484t.288,27.871v17.242a62.485,62.485,0,0,0,1.723,16.093,32.168,32.168,0,0,0,4.6,10.344,19.632,19.632,0,0,0,6.895,6.894H213.654a114.508,114.508,0,0,0,15.52-14.939,74.944,74.944,0,0,0,11.205-16.381,43.961,43.961,0,0,0,4.884-20.4V135.027a34.959,34.959,0,0,0-3.161-15.232,49.519,49.519,0,0,0-7.183-11.205,59.545,59.545,0,0,0-9.767-9.771H379.171a18.353,18.353,0,0,0-6.322,5.745,26.6,26.6,0,0,0-4.022,7.76,35.54,35.54,0,0,0-1.727,11.782,83.909,83.909,0,0,0,.862,9.482q.865,6.612,2.3,15.805t3.45,20.114q2,10.921,4.31,21.838,5.174,25.863,11.494,56.894,5.734-29.306,10.92-54.022,4.59-21.25,8.045-41.375t4.022-28.163v-2.873a31.125,31.125,0,0,0-1.723-10.92,47.171,47.171,0,0,0-3.449-7.472,19.635,19.635,0,0,0-5.172-4.6H560.78a71.779,71.779,0,0,0-13.22,10.344,59.611,59.611,0,0,0-8.621,11.2,25.709,25.709,0,0,0-4.023,13.509Z"/></g></svg>